<?xml version="1.0" standalone="no"?>
<!DOCTYPE svg PUBLIC "-//W3C//DTD SVG 20010904//EN"
 "http://www.w3.org/TR/2001/REC-SVG-20010904/DTD/svg10.dtd">
<svg version="1.0" xmlns="http://www.w3.org/2000/svg"
 width="700.000000pt" height="700.000000pt" viewBox="0 0 700.000000 700.000000"
 preserveAspectRatio="xMidYMid meet">
<metadata>
Created by potrace 1.14, written by Peter Selinger 2001-2017
</metadata>
<g transform="translate(0.000000,700.000000) scale(0.100000,-0.100000)"
fill="#000000" stroke="none">
<path d="M4989 5246 c-2 -2 -33 -6 -69 -10 -62 -5 -92 -10 -150 -21 -14 -3
-34 -7 -45 -9 -55 -11 -220 -61 -298 -92 -221 -85 -465 -251 -635 -433 -108
-115 -297 -399 -358 -538 -14 -32 -32 -71 -39 -88 -46 -103 -113 -366 -130
-510 -3 -27 -8 -66 -10 -85 -6 -42 -13 -142 -20 -265 -5 -98 -10 -142 -26
-225 -115 -599 -600 -1048 -1197 -1107 -114 -11 -293 -3 -361 17 -17 5 -35 9
-39 9 -67 6 -233 66 -342 124 -313 164 -545 429 -665 761 -62 171 -88 317 -88
501 -1 250 47 456 156 670 129 252 331 451 588 580 86 44 256 102 324 111 28
3 52 8 55 9 25 15 283 22 384 10 148 -17 325 -68 431 -123 42 -22 141 -85 201
-127 10 -7 20 -3 37 15 52 56 297 372 297 383 0 7 -20 26 -45 42 -24 17 -45
33 -45 38 0 4 -6 7 -13 7 -8 0 -22 9 -32 20 -10 11 -21 20 -25 20 -4 0 -45 22
-91 48 -111 64 -179 95 -296 136 -67 24 -156 49 -213 60 -14 3 -34 7 -46 10
-12 2 -45 7 -74 11 -29 4 -62 9 -74 11 -35 7 -276 7 -356 0 -202 -19 -425 -83
-616 -176 -113 -56 -271 -154 -338 -210 -255 -214 -426 -436 -550 -710 -54
-122 -52 -116 -84 -220 -29 -91 -64 -245 -77 -340 -11 -71 -13 -388 -4 -460 4
-36 11 -90 15 -120 3 -30 10 -65 15 -77 5 -13 7 -23 4 -23 -7 0 46 -187 83
-285 223 -605 731 -1069 1337 -1219 218 -55 526 -67 720 -30 20 4 77 14 106
19 33 6 166 47 234 72 156 58 377 180 484 268 135 112 240 216 312 310 13 17
26 32 29 35 11 9 63 81 79 109 182 316 276 551 306 765 3 20 7 53 10 74 3 20
8 111 10 202 10 368 40 520 149 745 112 230 314 451 531 581 109 65 273 134
355 149 14 3 36 7 50 10 168 35 368 35 535 1 519 -107 951 -533 1075 -1061 31
-129 35 -171 35 -340 -1 -182 -5 -219 -39 -355 -132 -520 -541 -903 -1076
-1006 -98 -18 -310 -26 -390 -13 -30 5 -71 11 -90 14 -188 29 -423 139 -590
275 -25 20 -50 40 -56 43 -7 4 -64 -52 -135 -131 -68 -75 -144 -159 -169 -185
-25 -27 -46 -52 -47 -55 -4 -12 9 -25 87 -89 272 -220 592 -360 940 -410 72
-10 400 -10 470 1 30 4 64 9 76 11 183 27 471 137 644 248 455 290 771 769
861 1307 7 41 14 84 16 95 8 49 10 387 2 450 -16 132 -20 158 -35 224 -67 295
-196 577 -361 791 -211 274 -495 495 -786 611 -71 29 -209 77 -238 83 -13 3
-55 13 -94 21 -38 9 -86 18 -105 21 -19 3 -46 8 -60 10 -32 7 -315 16 -321 10z"/>
</g>
</svg>
