<?xml version="1.0" encoding="UTF-8" standalone="no"?>
<svg
   id="svg"
   version="1.1"
   width="400"
   height="400"
   viewBox="0, 0, 400,400"
   sodipodi:docname="white.svg"
   inkscape:version="1.1.1 (3bf5ae0d25, 2021-09-20)"
   xmlns:inkscape="http://www.inkscape.org/namespaces/inkscape"
   xmlns:sodipodi="http://sodipodi.sourceforge.net/DTD/sodipodi-0.dtd"
   xmlns="http://www.w3.org/2000/svg"
   xmlns:svg="http://www.w3.org/2000/svg">
  <defs
     id="defs7" />
  <sodipodi:namedview
     id="namedview5"
     pagecolor="#ffffff"
     bordercolor="#666666"
     borderopacity="1.0"
     inkscape:pageshadow="2"
     inkscape:pageopacity="0.0"
     inkscape:pagecheckerboard="0"
     showgrid="false"
     inkscape:zoom="2.005"
     inkscape:cx="199.75062"
     inkscape:cy="199.75062"
     inkscape:window-width="2400"
     inkscape:window-height="1261"
     inkscape:window-x="2391"
     inkscape:window-y="-9"
     inkscape:window-maximized="1"
     inkscape:current-layer="svg" />
  <g
     id="svgg"
     transform="matrix(1.1430624,0,0.01626878,1.2232039,-23.884249,-41.535132)">
    <path
       id="path0"
       d="m 269.467,115.892 c -21.618,1.659 -39.361,8.403 -54.808,20.832 -3.786,3.046 -9.326,8.229 -9.326,8.725 0,0.182 -1.338,1.941 -2.973,3.908 -15.098,18.161 -21.156,34.868 -22.76,62.776 -2.721,47.325 -55.085,76.397 -98.94,54.931 -49.158,-24.063 -49.466,-92.469 -0.527,-116.778 22.299,-11.076 52.561,-9.173 70.541,4.435 1.773,1.342 0.676,2.281 9.88,-8.454 4.275,-4.987 7.941,-9.258 8.147,-9.492 0.41,-0.467 -5.122,-4.25 -11.053,-7.558 C 120.991,108.772 74.264,115.316 44.526,145.059 2.67,186.922 11.389,255.221 62.533,286.123 c 39.789,24.041 92.298,15.294 121.891,-20.305 1.136,-1.367 2.21,-2.605 2.387,-2.751 0.426,-0.353 5.495,-8.258 6.072,-9.468 0.104,-0.22 0.42,-0.759 0.701,-1.199 2.851,-4.457 7.682,-14.963 8.829,-19.2 2.521,-9.313 3.093,-13.426 3.35,-24.097 0.094,-3.907 0.26,-7.223 0.37,-7.37 0.109,-0.146 0.281,-1.166 0.381,-2.266 2.429,-26.641 24.953,-50.789 52.819,-56.629 49.78,-10.432 93.252,32.591 81.067,80.229 -11.817,46.195 -71.619,65.184 -109.333,34.714 -1.027,-0.829 -1.941,-1.509 -2.031,-1.511 -0.089,-0.002 -4.141,4.065 -9.003,9.037 l -8.84,9.041 2.07,1.719 c 38.232,31.736 95.379,28.677 129.406,-6.926 41.402,-43.32 30.368,-112.551 -22.572,-141.625 -14.839,-8.149 -35.151,-12.812 -50.63,-11.624"
       stroke="none"
       fill="#000000"
       fill-rule="evenodd"
       style="fill:#ffffff;fill-opacity:1" />
  </g>
</svg>
