<?xml version="1.0" encoding="UTF-8" standalone="no"?>
<!-- Created with Inkscape (http://www.inkscape.org/) -->

<svg
   width="50mm"
   height="50mm"
   viewBox="0 0 50 50"
   version="1.1"
   id="svg1102"
   inkscape:version="1.1.1 (3bf5ae0d25, 2021-09-20)"
   sodipodi:docname="blankAvitar.svg"
   xmlns:inkscape="http://www.inkscape.org/namespaces/inkscape"
   xmlns:sodipodi="http://sodipodi.sourceforge.net/DTD/sodipodi-0.dtd"
   xmlns="http://www.w3.org/2000/svg"
   xmlns:svg="http://www.w3.org/2000/svg">
  <sodipodi:namedview
     id="namedview1104"
     pagecolor="#ffffff"
     bordercolor="#666666"
     borderopacity="1.0"
     inkscape:pageshadow="2"
     inkscape:pageopacity="0.0"
     inkscape:pagecheckerboard="0"
     inkscape:document-units="mm"
     showgrid="false"
     inkscape:zoom="1.4289282"
     inkscape:cx="70.332437"
     inkscape:cy="206.09853"
     inkscape:window-width="1920"
     inkscape:window-height="991"
     inkscape:window-x="-9"
     inkscape:window-y="235"
     inkscape:window-maximized="1"
     inkscape:current-layer="layer1" />
  <defs
     id="defs1099" />
  <g
     inkscape:label="Layer 1"
     inkscape:groupmode="layer"
     id="layer1">
    <circle
       fill="#00c8ce"
       cx="25.390219"
       cy="25.01989"
       id="circle132"
       style="stroke-width:0.251762;fill:#5f27cd;fill-opacity:1"
       r="25" />
    <path
       fill="#ffffff"
       d="m 25.18183,27.882925 c 6.35,-0.0529 11.27125,-5.21229 11.21833,-11.40354 -0.0264,-6.058959 -5.05353,-11.0066693 -11.13895,-11.0331293 -0.0265,0 -0.10583,0 -0.10583,0 0,0 -0.0529,0 -0.0794,0 -6.058963,0 -11.059587,4.9741703 -11.112504,11.0331293 0,6.19125 4.841875,11.35062 11.218334,11.40354 z"
       id="path142"
       style="stroke-width:0.264583;fill:#ffffff;fill-opacity:0.75" />
    <path
       fill="#ffffff"
       d="m 45.162464,40.721227 c -0.217243,-5.68854 -2.703422,-11.24479 -10.282634,-10.76854 -3.11376,0.1852 -6.22751,0.10583 -9.34127,0.10583 -0.07244,0 -0.04826,0 -0.289652,0 -0.241373,0 -0.120687,0 -0.193104,0 -3.11375,0 -6.22751,0.0794 -9.341261,-0.10583 -7.5792175,-0.47625 -10.0653948,5.13291 -10.2826335,10.82145 -0.2172388,5.715 -0.1206876,11.43 -0.072408,17.171465 0.024139,2.80459 1.8585984,4.81542 4.1516744,4.84188 2.1482481,0.0265 3.7171981,-1.71979 3.7896161,-4.65667 0.120687,-4.709585 0.07244,-9.445625 0.120687,-14.155215 0,-0.66146 0.04826,-1.29646 0.168964,-1.95791 0.04826,-0.21167 0.337921,-0.39688 0.506886,-0.58209 0.120687,0.21167 0.362069,0.39688 0.386199,0.635 0.07244,0.58209 0.04826,1.16417 0.04826,1.74625 0,7.32896 -0.02418,14.657925 0,21.986885 0,3.30729 0.555164,3.88937 3.596506,3.88937 2.365492,0 4.562018,0 7.120604,0 2.558587,0 4.779252,0 7.168883,0 3.041342,0 3.620646,-0.60854 3.620646,-3.88937 0,-7.32896 0,-14.657925 0,-21.986885 0,-0.58208 0,-1.16416 0.04826,-1.74625 0.02417,-0.23812 0.241382,-0.42333 0.386208,-0.635 0.168956,0.18521 0.482747,0.34396 0.506886,0.58209 0.120687,0.635 0.168965,1.29645 0.168965,1.93145 0.04826,4.70959 -0.02418,9.44563 0.120687,14.155215 0.07244,2.93688 1.641353,4.68313 3.789601,4.65667 2.317213,-0.0265 4.151671,-2.06375 4.151671,-4.86833 0.07244,-5.688555 0.168974,-11.430005 -0.04826,-17.171465 z"
       id="path140"
       style="stroke-width:0.252713;fill:#ffffff;fill-opacity:0.75" />
  </g>
</svg>
